<svg width="192" height="192" viewBox="0 0 192 192" fill="none" xmlns="http://www.w3.org/2000/svg">
<path d="M169.632 43.0624C168.134 42.1098 166.254 41.9887 164.648 42.7407L146.242 51.3551C149.162 46.316 150.844 40.4736 150.844 34.2418C150.844 15.3609 135.483 0 116.603 0C104.361 0 93.6046 6.46219 87.5499 16.1503C81.4952 6.46219 70.7389 0 58.4966 0C39.6158 0 24.2548 15.3609 24.2548 34.2418C24.2548 44.9088 29.1597 54.4503 36.8305 60.7353C36.2321 61.5814 35.8765 62.6122 35.8765 63.7274V109.785C35.8765 112.651 38.1989 114.974 41.0651 114.974H52.3582L59.1248 130.045C59.9619 131.909 61.8152 133.108 63.8582 133.108H73.6016L35.4953 169.473C33.422 171.45 33.3459 174.735 35.3238 176.809C36.3435 177.877 37.7091 178.415 39.0782 178.415C40.365 178.415 41.6552 177.938 42.6597 176.98L81.3658 140.043V186.811C81.3658 189.677 83.6882 192 86.5543 192C89.4205 192 91.7429 189.677 91.7429 186.811V139.685L130.536 175.111C131.532 176.02 132.785 176.468 134.034 176.468C135.44 176.468 136.843 175.9 137.867 174.779C139.799 172.663 139.65 169.381 137.534 167.448L99.9312 133.108H109.253C111.296 133.108 113.149 131.909 113.986 130.045L120.754 114.974H130.893L164.649 130.772C165.349 131.099 166.099 131.261 166.849 131.261C167.82 131.261 168.788 130.989 169.633 130.45C171.13 129.498 172.037 127.847 172.037 126.073V47.4401C172.036 45.6657 171.129 44.015 169.632 43.0624ZM87.5499 52.3333C88.9605 54.59 90.6215 56.6737 92.5025 58.5389H82.5972C84.4775 56.6737 86.1393 54.59 87.5499 52.3333ZM116.603 10.3771C129.762 10.3771 140.466 21.0829 140.466 34.2418C140.466 47.4007 129.761 58.1065 116.603 58.1065C103.444 58.1065 92.7384 47.4007 92.7384 34.2418C92.7384 21.0829 103.444 10.3771 116.603 10.3771ZM58.4966 10.3771C71.6555 10.3771 82.3613 21.0829 82.3613 34.2418C82.3613 47.4007 71.6555 58.1065 58.4966 58.1065C45.3377 58.1065 34.632 47.4007 34.632 34.2418C34.632 21.0829 45.337 10.3771 58.4966 10.3771ZM46.253 68.916H126.857V104.597H117.395H55.7156H46.253V68.916ZM105.893 122.731H67.2155L63.7329 114.974H109.376L105.893 122.731ZM161.659 117.916L137.234 106.485V67.028L161.659 55.5973V117.916Z" fill="black"/>
<path d="M25.1528 70.054C22.2866 70.054 19.9642 72.3771 19.9642 75.2426V98.2722C19.9642 101.138 22.2866 103.461 25.1528 103.461C28.019 103.461 30.3414 101.138 30.3414 98.2722V75.2426C30.3414 72.3771 28.019 70.054 25.1528 70.054Z" fill="black"/>
</svg>
