<svg width="512" height="512" viewBox="0 0 512 512" fill="none" xmlns="http://www.w3.org/2000/svg">
<path d="M452.351 114.833C448.357 112.293 443.345 111.97 439.061 113.975L389.978 136.947C397.767 123.509 402.249 107.93 402.249 91.3115C402.249 40.9625 361.289 0 310.942 0C278.296 0 249.612 17.2325 233.466 43.0675C217.32 17.2325 188.637 0 155.991 0C105.642 0 64.6796 40.9625 64.6796 91.3115C64.6796 119.757 77.7594 145.201 98.2148 161.961C96.619 164.217 95.6708 166.966 95.6708 169.94V292.761C95.6708 300.402 101.864 306.597 109.507 306.597H139.622L157.666 346.787C159.898 351.757 164.841 354.956 170.288 354.956H196.271L94.6543 451.927C89.1253 457.201 88.9224 465.961 94.1968 471.489C96.916 474.34 100.558 475.773 104.209 475.773C107.64 475.773 111.081 474.502 113.759 471.947L216.975 373.448V498.164C216.975 505.805 223.169 512 230.812 512C238.455 512 244.648 505.805 244.648 498.164V372.492L348.096 466.962C350.751 469.386 354.092 470.582 357.424 470.582C361.174 470.582 364.916 469.065 367.644 466.077C372.797 460.433 372.4 451.682 366.759 446.529L266.483 354.956H291.34C296.788 354.956 301.73 351.758 303.963 346.787L322.011 306.597H349.048L439.065 348.726C440.93 349.598 442.932 350.03 444.929 350.03C447.52 350.03 450.101 349.303 452.355 347.868C456.347 345.329 458.766 340.926 458.766 336.194V126.507C458.762 121.775 456.343 117.373 452.351 114.833ZM233.466 139.556C237.228 145.573 241.657 151.13 246.673 156.104H220.259C225.273 151.13 229.705 145.573 233.466 139.556ZM310.942 27.6724C346.032 27.6724 374.577 56.2211 374.577 91.3115C374.577 126.402 346.03 154.951 310.942 154.951C275.851 154.951 247.303 126.402 247.303 91.3115C247.303 56.2211 275.849 27.6724 310.942 27.6724ZM155.991 27.6724C191.081 27.6724 219.63 56.2211 219.63 91.3115C219.63 126.402 191.081 154.951 155.991 154.951C120.901 154.951 92.3519 126.402 92.3519 91.3115C92.3519 56.2211 120.899 27.6724 155.991 27.6724ZM123.341 183.776H338.286V278.925H313.052H148.575H123.341V183.776ZM282.382 327.283H179.241L169.955 306.597H291.671L282.382 327.283ZM431.09 314.443L365.958 283.961V178.741L431.09 148.259V314.443Z" fill="black"/>
<path d="M67.0742 186.811C59.4311 186.811 53.238 193.006 53.238 200.647V262.059C53.238 269.701 59.4311 275.896 67.0742 275.896C74.7173 275.896 80.9104 269.701 80.9104 262.059V200.647C80.9104 193.006 74.7173 186.811 67.0742 186.811Z" fill="black"/>
</svg>
